<svg xmlns="http://www.w3.org/2000/svg" version="1.1" xmlns:xlink="http://www.w3.org/1999/xlink" xmlns:svgjs="http://svgjs.dev/svgjs" viewBox="0 0 800 800"><g fill="hsl(32, 41%, 56%)"><circle r="0.5" cx="405" cy="400" opacity="0.59"></circle><circle r="0.5" cx="405" cy="403" opacity="0.99"></circle><circle r="0.5" cx="402" cy="406" opacity="0.95"></circle><circle r="0.5" cx="398" cy="407" opacity="0.12"></circle><circle r="0.5" cx="395" cy="405" opacity="0.63"></circle><circle r="0.5" cx="392" cy="401" opacity="0.40"></circle><circle r="0.5" cx="392" cy="396" opacity="0.81"></circle><circle r="0.5" cx="395" cy="392" opacity="0.82"></circle><circle r="0.5" cx="401" cy="390" opacity="0.77"></circle><circle r="0.5" cx="407" cy="392" opacity="0.63"></circle><circle r="0.5" cx="411" cy="397" opacity="0.38"></circle><circle r="0.5" cx="411" cy="404" opacity="0.51"></circle><circle r="0.5" cx="407" cy="410" opacity="0.85"></circle><circle r="0.5" cx="401" cy="413" opacity="0.29"></circle><circle r="0.5" cx="393" cy="411" opacity="0.56"></circle><circle r="0.5" cx="387" cy="406" opacity="0.72"></circle><circle r="0.5" cx="386" cy="397" opacity="0.80"></circle><circle r="0.5" cx="389" cy="389" opacity="0.90"></circle><circle r="0.5" cx="397" cy="385" opacity="0.69"></circle><circle r="0.5" cx="406" cy="385" opacity="0.66"></circle><circle r="0.5" cx="414" cy="391" opacity="0.75"></circle><circle r="0.5" cx="418" cy="401" opacity="0.80"></circle><circle r="0.5" cx="415" cy="411" opacity="0.73"></circle><circle r="0.5" cx="406" cy="418" opacity="0.59"></circle><circle r="0.5" cx="395" cy="419" opacity="0.33"></circle><circle r="0.5" cx="385" cy="413" opacity="0.53"></circle><circle r="1" cx="380" cy="402" opacity="0.97"></circle><circle r="1" cx="381" cy="390" opacity="0.38"></circle><circle r="1" cx="390" cy="381" opacity="0.99"></circle><circle r="1" cx="403" cy="378" opacity="0.30"></circle><circle r="1" cx="415" cy="383" opacity="0.55"></circle><circle r="1" cx="423" cy="394" opacity="0.51"></circle><circle r="1" cx="423" cy="408" opacity="0.51"></circle><circle r="1" cx="414" cy="420" opacity="0.94"></circle><circle r="1" cx="401" cy="425" opacity="0.85"></circle><circle r="1" cx="386" cy="422" opacity="0.26"></circle><circle r="1" cx="375" cy="410" opacity="0.81"></circle><circle r="1" cx="373" cy="394" opacity="0.21"></circle><circle r="1" cx="381" cy="380" opacity="0.91"></circle><circle r="1" cx="395" cy="372" opacity="0.25"></circle><circle r="1" cx="412" cy="374" opacity="0.47"></circle><circle r="1" cx="425" cy="385" opacity="0.31"></circle><circle r="1" cx="430" cy="402" opacity="0.81"></circle><circle r="1" cx="424" cy="419" opacity="0.50"></circle><circle r="1" cx="409" cy="430" opacity="0.53"></circle><circle r="1" cx="391" cy="431" opacity="0.86"></circle><circle r="1" cx="375" cy="420" opacity="0.78"></circle><circle r="1" cx="367" cy="402" opacity="0.86"></circle><circle r="1" cx="371" cy="383" opacity="0.32"></circle><circle r="1" cx="385" cy="369" opacity="0.25"></circle><circle r="1" cx="405" cy="365" opacity="0.45"></circle><circle r="1" cx="424" cy="374" opacity="0.99"></circle><circle r="1" cx="435" cy="392" opacity="0.68"></circle><circle r="1" cx="434" cy="414" opacity="0.78"></circle><circle r="1" cx="421" cy="431" opacity="0.84"></circle><circle r="1" cx="399" cy="438" opacity="0.29"></circle><circle r="1" cx="378" cy="432" opacity="0.29"></circle><circle r="1" cx="363" cy="414" opacity="0.99"></circle><circle r="1" cx="361" cy="390" opacity="0.35"></circle><circle r="1" cx="373" cy="370" opacity="0.91"></circle><circle r="1" cx="395" cy="359" opacity="0.66"></circle><circle r="1" cx="419" cy="363" opacity="0.36"></circle><circle r="1" cx="437" cy="380" opacity="0.75"></circle><circle r="1" cx="443" cy="404" opacity="0.13"></circle><circle r="1" cx="433" cy="428" opacity="0.70"></circle><circle r="1" cx="412" cy="442" opacity="0.49"></circle><circle r="1" cx="386" cy="442" opacity="0.84"></circle><circle r="1" cx="364" cy="427" opacity="0.91"></circle><circle r="1" cx="354" cy="402" opacity="0.63"></circle><circle r="1" cx="361" cy="375" opacity="0.70"></circle><circle r="1" cx="381" cy="357" opacity="0.92"></circle><circle r="1" cx="409" cy="353" opacity="0.43"></circle><circle r="1" cx="434" cy="366" opacity="0.66"></circle><circle r="1" cx="448" cy="391" opacity="0.83"></circle><circle r="1" cx="445" cy="420" opacity="0.27"></circle><circle r="1" cx="426" cy="443" opacity="0.55"></circle><circle r="1" cx="398" cy="451" opacity="0.53"></circle><circle r="1" cx="369" cy="441" opacity="0.12"></circle><circle r="1" cx="351" cy="416" opacity="0.72"></circle><circle r="1" cx="350" cy="386" opacity="0.72"></circle><circle r="1" cx="366" cy="359" opacity="0.85"></circle><circle r="1" cx="395" cy="347" opacity="0.13"></circle><circle r="1" cx="426" cy="353" opacity="0.89"></circle><circle r="1" cx="449" cy="375" opacity="0.31"></circle><circle r="1" cx="455" cy="407" opacity="0.58"></circle><circle r="1" cx="442" cy="438" opacity="0.69"></circle><circle r="1" cx="413" cy="455" opacity="0.15"></circle><circle r="1" cx="380" cy="453" opacity="0.30"></circle><circle r="1" cx="353" cy="433" opacity="0.28"></circle><circle r="1" cx="342" cy="400" opacity="0.81"></circle><circle r="1" cx="351" cy="367" opacity="0.93"></circle><circle r="1" cx="378" cy="345" opacity="0.61"></circle><circle r="1" cx="413" cy="341" opacity="0.41"></circle><circle r="1" cx="445" cy="359" opacity="0.23"></circle><circle r="1" cx="461" cy="391" opacity="0.53"></circle><circle r="1" cx="456" cy="427" opacity="0.33"></circle><circle r="1" cx="431" cy="454" opacity="0.74"></circle><circle r="1" cx="395" cy="463" opacity="0.82"></circle><circle r="1" cx="360" cy="450" opacity="0.28"></circle><circle r="1" cx="338" cy="418" opacity="0.69"></circle><circle r="1" cx="338" cy="380" opacity="0.29"></circle><circle r="1" cx="360" cy="348" opacity="0.61"></circle><circle r="1" cx="396" cy="334" opacity="0.38"></circle><circle r="1" cx="434" cy="343" opacity="0.94"></circle><circle r="1" cx="461" cy="372" opacity="0.79"></circle><circle r="1" cx="467" cy="411" opacity="0.78"></circle><circle r="1" cx="449" cy="448" opacity="0.68"></circle><circle r="1" cx="414" cy="468" opacity="0.68"></circle><circle r="1" cx="373" cy="464" opacity="0.66"></circle><circle r="1" cx="341" cy="438" opacity="1.00"></circle><circle r="1" cx="329" cy="398" opacity="0.23"></circle><circle r="1" cx="342" cy="358" opacity="0.51"></circle><circle r="1.5" cx="376" cy="332" opacity="0.56"></circle><circle r="1.5" cx="418" cy="330" opacity="0.90"></circle><circle r="1.5" cx="455" cy="352" opacity="0.61"></circle><circle r="1.5" cx="474" cy="392" opacity="0.56"></circle><circle r="1.5" cx="466" cy="435" opacity="0.36"></circle><circle r="1.5" cx="435" cy="466" opacity="0.83"></circle><circle r="1.5" cx="391" cy="475" opacity="0.80"></circle><circle r="1.5" cx="350" cy="458" opacity="0.22"></circle><circle r="1.5" cx="326" cy="420" opacity="0.91"></circle><circle r="1.5" cx="327" cy="374" opacity="1.00"></circle><circle r="1.5" cx="354" cy="337" opacity="0.92"></circle><circle r="1.5" cx="398" cy="321" opacity="0.42"></circle><circle r="1.5" cx="443" cy="333" opacity="0.90"></circle><circle r="1.5" cx="474" cy="369" opacity="0.28"></circle><circle r="1.5" cx="479" cy="416" opacity="0.90"></circle><circle r="1.5" cx="456" cy="458" opacity="0.87"></circle><circle r="1.5" cx="414" cy="481" opacity="0.88"></circle><circle r="1.5" cx="366" cy="475" opacity="0.16"></circle><circle r="1.5" cx="329" cy="443" opacity="0.70"></circle><circle r="1.5" cx="317" cy="395" opacity="0.20"></circle><circle r="1.5" cx="333" cy="348" opacity="0.38"></circle><circle r="1.5" cx="374" cy="319" opacity="0.72"></circle><circle r="1.5" cx="424" cy="318" opacity="0.69"></circle><circle r="1.5" cx="467" cy="346" opacity="0.18"></circle><circle r="1.5" cx="486" cy="393" opacity="0.50"></circle><circle r="1.5" cx="476" cy="443" opacity="0.52"></circle><circle r="1.5" cx="438" cy="479" opacity="0.35"></circle><circle r="1.5" cx="387" cy="487" opacity="0.85"></circle><circle r="1.5" cx="339" cy="465" opacity="0.52"></circle><circle r="1.5" cx="313" cy="420" opacity="0.27"></circle><circle r="1.5" cx="316" cy="367" opacity="0.83"></circle><circle r="1.5" cx="349" cy="325" opacity="0.44"></circle><circle r="1.5" cx="401" cy="309" opacity="0.51"></circle><circle r="1.5" cx="452" cy="324" opacity="0.89"></circle><circle r="1.5" cx="487" cy="367" opacity="0.57"></circle><circle r="1.5" cx="491" cy="422" opacity="0.48"></circle><circle r="1.5" cx="463" cy="470" opacity="0.68"></circle><circle r="1.5" cx="413" cy="494" opacity="0.88"></circle><circle r="1.5" cx="357" cy="485" opacity="0.49"></circle><circle r="1.5" cx="316" cy="446" opacity="0.17"></circle><circle r="1.5" cx="304" cy="391" opacity="0.78"></circle><circle r="1.5" cx="326" cy="338" opacity="0.76"></circle><circle r="1.5" cx="373" cy="306" opacity="0.59"></circle><circle r="1.5" cx="431" cy="307" opacity="0.71"></circle><circle r="1.5" cx="479" cy="341" opacity="0.33"></circle><circle r="1.5" cx="499" cy="395" opacity="0.68"></circle><circle r="1.5" cx="485" cy="452" opacity="0.48"></circle><circle r="1.5" cx="441" cy="492" opacity="0.76"></circle><circle r="1.5" cx="382" cy="499" opacity="0.84"></circle><circle r="1.5" cx="328" cy="472" opacity="0.97"></circle><circle r="1.5" cx="300" cy="419" opacity="0.99"></circle><circle r="1.5" cx="306" cy="359" opacity="0.59"></circle><circle r="1.5" cx="345" cy="312" opacity="0.88"></circle><circle r="1.5" cx="404" cy="296" opacity="0.35"></circle><circle r="1.5" cx="462" cy="316" opacity="0.55"></circle><circle r="1.5" cx="499" cy="366" opacity="0.69"></circle><circle r="1.5" cx="502" cy="428" opacity="0.41"></circle><circle r="1.5" cx="469" cy="481" opacity="0.54"></circle><circle r="1.5" cx="411" cy="506" opacity="0.54"></circle><circle r="1.5" cx="349" cy="495" opacity="0.89"></circle><circle r="1.5" cx="304" cy="449" opacity="0.74"></circle><circle r="1.5" cx="292" cy="386" opacity="0.19"></circle><circle r="1.5" cx="318" cy="327" opacity="0.26"></circle><circle r="1.5" cx="373" cy="293" opacity="0.94"></circle><circle r="1.5" cx="439" cy="296" opacity="0.83"></circle><circle r="1.5" cx="491" cy="336" opacity="0.67"></circle><circle r="1.5" cx="512" cy="398" opacity="0.63"></circle><circle r="1.5" cx="494" cy="462" opacity="0.96"></circle><circle r="1.5" cx="442" cy="505" opacity="0.57"></circle><circle r="1.5" cx="376" cy="511" opacity="0.99"></circle><circle r="1.5" cx="317" cy="478" opacity="0.29"></circle><circle r="1.5" cx="287" cy="418" opacity="0.17"></circle><circle r="1.5" cx="296" cy="350" opacity="0.59"></circle><circle r="1.5" cx="342" cy="300" opacity="0.31"></circle><circle r="1.5" cx="409" cy="284" opacity="0.81"></circle><circle r="1.5" cx="473" cy="308" opacity="0.42"></circle><circle r="1.5" cx="513" cy="365" opacity="0.15"></circle><circle r="1.5" cx="513" cy="435" opacity="0.38"></circle><circle r="1.5" cx="474" cy="493" opacity="0.47"></circle><circle r="1.5" cx="408" cy="519" opacity="0.32"></circle><circle r="1.5" cx="339" cy="504" opacity="0.94"></circle><circle r="1.5" cx="291" cy="451" opacity="0.33"></circle><circle r="1.5" cx="280" cy="381" opacity="0.81"></circle><circle r="1.5" cx="312" cy="316" opacity="0.51"></circle><circle r="1.5" cx="374" cy="280" opacity="0.82"></circle><circle r="2" cx="447" cy="286" opacity="0.40"></circle><circle r="2" cx="504" cy="332" opacity="0.20"></circle><circle r="2" cx="524" cy="402" opacity="0.37"></circle><circle r="2" cx="502" cy="473" opacity="0.17"></circle><circle r="2" cx="443" cy="518" opacity="0.46"></circle><circle r="2" cx="369" cy="522" opacity="0.73"></circle><circle r="2" cx="305" cy="484" opacity="0.52"></circle><circle r="2" cx="274" cy="416" opacity="0.83"></circle><circle r="2" cx="286" cy="341" opacity="0.85"></circle><circle r="2" cx="339" cy="287" opacity="0.27"></circle><circle r="2" cx="414" cy="272" opacity="0.97"></circle><circle r="2" cx="484" cy="301" opacity="0.66"></circle><circle r="2" cx="526" cy="366" opacity="0.21"></circle><circle r="2" cx="524" cy="443" opacity="0.50"></circle><circle r="2" cx="478" cy="506" opacity="0.75"></circle><circle r="2" cx="405" cy="532" opacity="0.25"></circle><circle r="2" cx="329" cy="512" opacity="0.98"></circle><circle r="2" cx="277" cy="453" opacity="0.55"></circle><circle r="2" cx="269" cy="374" opacity="0.36"></circle><circle r="2" cx="306" cy="304" opacity="0.62"></circle><circle r="2" cx="376" cy="267" opacity="0.34"></circle><circle r="2" cx="456" cy="276" opacity="0.87"></circle><circle r="2" cx="517" cy="329" opacity="0.69"></circle><circle r="2" cx="537" cy="407" opacity="0.15"></circle><circle r="2" cx="509" cy="484" opacity="0.29"></circle><circle r="2" cx="443" cy="531" opacity="0.17"></circle><circle r="2" cx="361" cy="533" opacity="0.39"></circle><circle r="2" cx="292" cy="489" opacity="0.86"></circle><circle r="2" cx="261" cy="412" opacity="0.38"></circle><circle r="2" cx="277" cy="331" opacity="0.57"></circle><circle r="2" cx="337" cy="273" opacity="0.28"></circle><circle r="2" cx="420" cy="260" opacity="0.34"></circle><circle r="2" cx="496" cy="295" opacity="0.64"></circle><circle r="2" cx="539" cy="367" opacity="0.71"></circle><circle r="2" cx="534" cy="452" opacity="0.72"></circle><circle r="2" cx="482" cy="519" opacity="0.53"></circle><circle r="2" cx="400" cy="545" opacity="0.45"></circle><circle r="2" cx="318" cy="520" opacity="0.49"></circle><circle r="2" cx="264" cy="453" opacity="0.18"></circle><circle r="2" cx="257" cy="367" opacity="0.81"></circle><circle r="2" cx="300" cy="292" opacity="0.78"></circle><circle r="2" cx="379" cy="254" opacity="0.51"></circle><circle r="2" cx="466" cy="267" opacity="0.34"></circle><circle r="2" cx="530" cy="327" opacity="0.37"></circle><circle r="2" cx="549" cy="413" opacity="0.19"></circle><circle r="2" cx="516" cy="495" opacity="0.24"></circle><circle r="2" cx="442" cy="545" opacity="0.43"></circle><circle r="2" cx="353" cy="544" opacity="0.17"></circle><circle r="2" cx="279" cy="493" opacity="0.89"></circle><circle r="2" cx="248" cy="408" opacity="0.88"></circle><circle r="2" cx="269" cy="321" opacity="0.58"></circle><circle r="2" cx="336" cy="260" opacity="0.37"></circle><circle r="2" cx="427" cy="248" opacity="0.68"></circle><circle r="2" cx="508" cy="289" opacity="0.53"></circle><circle r="2" cx="553" cy="370" opacity="0.25"></circle><circle r="2" cx="544" cy="461" opacity="0.19"></circle><circle r="2" cx="484" cy="532" opacity="0.81"></circle><circle r="2" cx="395" cy="557" opacity="0.42"></circle><circle r="2" cx="307" cy="527" opacity="0.59"></circle><circle r="2" cx="250" cy="453" opacity="0.34"></circle><circle r="2" cx="246" cy="359" opacity="0.74"></circle><circle r="2" cx="296" cy="279" opacity="0.88"></circle><circle r="2" cx="383" cy="241" opacity="0.10"></circle><circle r="2" cx="476" cy="258" opacity="0.74"></circle><circle r="2" cx="543" cy="325" opacity="0.21"></circle><circle r="2" cx="561" cy="419" opacity="0.29"></circle><circle r="2" cx="522" cy="507" opacity="0.82"></circle><circle r="2" cx="440" cy="558" opacity="0.85"></circle><circle r="2" cx="344" cy="554" opacity="0.31"></circle><circle r="2" cx="266" cy="496" opacity="0.69"></circle><circle r="2" cx="235" cy="404" opacity="0.18"></circle><circle r="2" cx="261" cy="309" opacity="0.34"></circle><circle r="2" cx="336" cy="246" opacity="0.68"></circle><circle r="2" cx="434" cy="237" opacity="0.58"></circle><circle r="2" cx="521" cy="284" opacity="0.78"></circle><circle r="2" cx="566" cy="373" opacity="0.16"></circle><circle r="2" cx="553" cy="471" opacity="0.91"></circle><circle r="2" cx="486" cy="546" opacity="0.19"></circle><circle r="2" cx="389" cy="570" opacity="0.84"></circle><circle r="2" cx="295" cy="534" opacity="0.87"></circle><circle r="2" cx="237" cy="451" opacity="0.92"></circle><circle r="2" cx="236" cy="350" opacity="0.62"></circle><circle r="2" cx="292" cy="265" opacity="0.53"></circle><circle r="2" cx="387" cy="227" opacity="0.63"></circle><circle r="2" cx="487" cy="250" opacity="0.82"></circle><circle r="2" cx="557" cy="325" opacity="0.67"></circle><circle r="2.5" cx="573" cy="427" opacity="0.80"></circle><circle r="2.5" cx="528" cy="520" opacity="0.69"></circle><circle r="2.5" cx="438" cy="572" opacity="0.99"></circle><circle r="2.5" cx="334" cy="564" opacity="0.63"></circle><circle r="2.5" cx="253" cy="498" opacity="0.19"></circle><circle r="2.5" cx="222" cy="398" opacity="0.45"></circle><circle r="2.5" cx="254" cy="297" opacity="0.26"></circle><circle r="2.5" cx="337" cy="232" opacity="0.36"></circle><circle r="2.5" cx="443" cy="226" opacity="0.93"></circle><circle r="2.5" cx="534" cy="280" opacity="0.65"></circle><circle r="2.5" cx="579" cy="377" opacity="0.74"></circle><circle r="2.5" cx="562" cy="482" opacity="0.18"></circle><circle r="2.5" cx="487" cy="560" opacity="0.65"></circle><circle r="2.5" cx="382" cy="582" opacity="0.88"></circle><circle r="2.5" cx="282" cy="540" opacity="0.54"></circle><circle r="2.5" cx="223" cy="449" opacity="0.72"></circle><circle r="2.5" cx="226" cy="340" opacity="0.79"></circle><circle r="2.5" cx="289" cy="252" opacity="0.94"></circle><circle r="2.5" cx="392" cy="215" opacity="0.43"></circle><circle r="2.5" cx="499" cy="242" opacity="0.87"></circle><circle r="2.5" cx="571" cy="325" opacity="0.19"></circle><circle r="2.5" cx="584" cy="435" opacity="0.62"></circle><circle r="2.5" cx="533" cy="533" opacity="0.84"></circle><circle r="2.5" cx="434" cy="585" opacity="0.54"></circle><circle r="2.5" cx="323" cy="573" opacity="0.10"></circle><circle r="2.5" cx="239" cy="500" opacity="0.96"></circle><circle r="2.5" cx="210" cy="391" opacity="0.28"></circle><circle r="2.5" cx="247" cy="285" opacity="0.49"></circle><circle r="2.5" cx="339" cy="218" opacity="0.25"></circle><circle r="2.5" cx="452" cy="215" opacity="0.77"></circle><circle r="2.5" cx="548" cy="276" opacity="0.74"></circle><circle r="2.5" cx="593" cy="382" opacity="0.51"></circle><circle r="2.5" cx="570" cy="494" opacity="0.53"></circle><circle r="2.5" cx="487" cy="574" opacity="0.94"></circle><circle r="2.5" cx="374" cy="593" opacity="0.55"></circle><circle r="2.5" cx="269" cy="545" opacity="0.88"></circle><circle r="2.5" cx="209" cy="446" opacity="0.31"></circle><circle r="2.5" cx="216" cy="330" opacity="0.21"></circle><circle r="2.5" cx="287" cy="238" opacity="0.33"></circle><circle r="2.5" cx="398" cy="202" opacity="1.00"></circle><circle r="2.5" cx="511" cy="235" opacity="0.25"></circle><circle r="2.5" cx="585" cy="326" opacity="0.77"></circle><circle r="2.5" cx="595" cy="444" opacity="0.48"></circle><circle r="2.5" cx="537" cy="547" opacity="0.68"></circle><circle r="2.5" cx="430" cy="599" opacity="0.32"></circle><circle r="2.5" cx="312" cy="582" opacity="0.82"></circle><circle r="2.5" cx="224" cy="501" opacity="0.70"></circle><circle r="2.5" cx="198" cy="384" opacity="0.96"></circle><circle r="2.5" cx="242" cy="272" opacity="0.66"></circle><circle r="2.5" cx="341" cy="204" opacity="0.21"></circle><circle r="2.5" cx="462" cy="205" opacity="0.26"></circle><circle r="2.5" cx="562" cy="274" opacity="0.73"></circle><circle r="2.5" cx="606" cy="387" opacity="0.90"></circle><circle r="2.5" cx="577" cy="506" opacity="0.64"></circle><circle r="2.5" cx="487" cy="588" opacity="0.60"></circle><circle r="2.5" cx="365" cy="605" opacity="0.77"></circle><circle r="2.5" cx="255" cy="550" opacity="0.42"></circle><circle r="2.5" cx="195" cy="442" opacity="0.51"></circle><circle r="2.5" cx="207" cy="319" opacity="0.52"></circle><circle r="2.5" cx="286" cy="224" opacity="0.81"></circle><circle r="2.5" cx="405" cy="189" opacity="0.50"></circle><circle r="2.5" cx="524" cy="229" opacity="0.90"></circle><circle r="2.5" cx="599" cy="328" opacity="0.54"></circle><circle r="2.5" cx="606" cy="454" opacity="0.69"></circle><circle r="2.5" cx="540" cy="561" opacity="0.63"></circle><circle r="2.5" cx="425" cy="612" opacity="0.21"></circle><circle r="2.5" cx="300" cy="590" opacity="0.67"></circle><circle r="2.5" cx="210" cy="501" opacity="0.41"></circle><circle r="2.5" cx="186" cy="376" opacity="0.53"></circle><circle r="2.5" cx="237" cy="259" opacity="0.22"></circle><circle r="2.5" cx="345" cy="190" opacity="0.55"></circle><circle r="2.5" cx="473" cy="195" opacity="0.40"></circle><circle r="2.5" cx="576" cy="272" opacity="0.88"></circle><circle r="2.5" cx="619" cy="394" opacity="0.55"></circle><circle r="2.5" cx="584" cy="519" opacity="0.72"></circle><circle r="2.5" cx="485" cy="603" opacity="0.75"></circle><circle r="2.5" cx="356" cy="616" opacity="0.95"></circle><circle r="2.5" cx="241" cy="554" opacity="0.19"></circle><circle r="2.5" cx="182" cy="437" opacity="0.56"></circle><circle r="2.5" cx="198" cy="307" opacity="0.47"></circle><circle r="2.5" cx="285" cy="209" opacity="0.77"></circle><circle r="2.5" cx="413" cy="177" opacity="0.84"></circle><circle r="2.5" cx="537" cy="223" opacity="0.47"></circle><circle r="2.5" cx="614" cy="331" opacity="0.59"></circle><circle r="2.5" cx="616" cy="464" opacity="0.20"></circle><circle r="3" cx="542" cy="575" opacity="0.74"></circle><circle r="3" cx="419" cy="626" opacity="0.12"></circle><circle r="3" cx="288" cy="597" opacity="0.75"></circle><circle r="3" cx="195" cy="500" opacity="0.29"></circle><circle r="3" cx="174" cy="367" opacity="0.67"></circle><circle r="3" cx="232" cy="245" opacity="0.57"></circle><circle r="3" cx="349" cy="176" opacity="0.50"></circle><circle r="3" cx="484" cy="186" opacity="0.68"></circle><circle r="3" cx="591" cy="271" opacity="0.13"></circle><circle r="3" cx="631" cy="401" opacity="0.63"></circle><circle r="3" cx="591" cy="532" opacity="0.30"></circle><circle r="3" cx="483" cy="617" opacity="0.60"></circle><circle r="3" cx="346" cy="627" opacity="0.22"></circle><circle r="3" cx="227" cy="557" opacity="0.93"></circle><circle r="3" cx="168" cy="432" opacity="0.87"></circle><circle r="3" cx="190" cy="295" opacity="0.89"></circle><circle r="3" cx="286" cy="194" opacity="0.26"></circle><circle r="3" cx="422" cy="165" opacity="0.34"></circle><circle r="3" cx="551" cy="218" opacity="0.40"></circle><circle r="3" cx="628" cy="335" opacity="0.48"></circle><circle r="3" cx="626" cy="475" opacity="0.98"></circle><circle r="3" cx="544" cy="590" opacity="0.11"></circle><circle r="3" cx="412" cy="639" opacity="0.29"></circle><circle r="3" cx="274" cy="604" opacity="0.83"></circle><circle r="3" cx="181" cy="498" opacity="0.57"></circle><circle r="3" cx="163" cy="357" opacity="0.36"></circle><circle r="3" cx="228" cy="230" opacity="0.65"></circle><circle r="3" cx="354" cy="162" opacity="0.49"></circle><circle r="3" cx="497" cy="177" opacity="0.63"></circle><circle r="3" cx="606" cy="271" opacity="0.40"></circle><circle r="3" cx="644" cy="409" opacity="0.57"></circle><circle r="3" cx="596" cy="546" opacity="0.66"></circle><circle r="3" cx="480" cy="632" opacity="0.31"></circle><circle r="3" cx="335" cy="637" opacity="0.58"></circle><circle r="3" cx="212" cy="559" opacity="0.52"></circle><circle r="3" cx="154" cy="425" opacity="0.68"></circle><circle r="3" cx="183" cy="282" opacity="0.11"></circle><circle r="3" cx="287" cy="179" opacity="0.90"></circle><circle r="3" cx="431" cy="153" opacity="0.61"></circle><circle r="3" cx="566" cy="214" opacity="0.88"></circle><circle r="3" cx="642" cy="340" opacity="0.88"></circle><circle r="3" cx="635" cy="487" opacity="0.65"></circle><circle r="3" cx="545" cy="605" opacity="0.66"></circle><circle r="3" cx="404" cy="652" opacity="0.32"></circle><circle r="3" cx="261" cy="610" opacity="0.63"></circle><circle r="3" cx="166" cy="495" opacity="0.44"></circle><circle r="3" cx="152" cy="346" opacity="0.90"></circle><circle r="3" cx="226" cy="215" opacity="0.35"></circle><circle r="3" cx="360" cy="149" opacity="0.31"></circle><circle r="3" cx="509" cy="169" opacity="0.93"></circle><circle r="3" cx="621" cy="271" opacity="0.44"></circle><circle r="3" cx="656" cy="419" opacity="0.11"></circle><circle r="3" cx="601" cy="560" opacity="0.96"></circle><circle r="3" cx="476" cy="646" opacity="0.73"></circle><circle r="3" cx="323" cy="647" opacity="0.76"></circle><circle r="3" cx="197" cy="561" opacity="0.27"></circle><circle r="3" cx="141" cy="418" opacity="0.75"></circle><circle r="3" cx="176" cy="268" opacity="0.72"></circle><circle r="3" cx="289" cy="164" opacity="0.50"></circle><circle r="3" cx="442" cy="142" opacity="0.92"></circle><circle r="3" cx="580" cy="210" opacity="0.79"></circle><circle r="3" cx="657" cy="345" opacity="0.88"></circle><circle r="3" cx="643" cy="500" opacity="0.67"></circle><circle r="3" cx="545" cy="620" opacity="0.41"></circle><circle r="3" cx="395" cy="664" opacity="0.19"></circle><circle r="3" cx="246" cy="616" opacity="0.85"></circle><circle r="3" cx="151" cy="492" opacity="0.19"></circle><circle r="3" cx="142" cy="335" opacity="0.80"></circle><circle r="3" cx="224" cy="200" opacity="0.64"></circle><circle r="3" cx="367" cy="135" opacity="0.88"></circle><circle r="3" cx="523" cy="162" opacity="0.55"></circle><circle r="3" cx="636" cy="273" opacity="0.39"></circle><circle r="3" cx="667" cy="429" opacity="0.21"></circle><circle r="3" cx="605" cy="575" opacity="0.78"></circle><circle r="3" cx="471" cy="661" opacity="0.61"></circle><circle r="3" cx="311" cy="656" opacity="0.74"></circle><circle r="3" cx="182" cy="561" opacity="0.83"></circle><circle r="3" cx="128" cy="410" opacity="0.18"></circle><circle r="3" cx="170" cy="254" opacity="0.52"></circle><circle r="3" cx="292" cy="149" opacity="0.35"></circle><circle r="3" cx="453" cy="131" opacity="0.65"></circle><circle r="3" cx="596" cy="208" opacity="0.73"></circle><circle r="3" cx="671" cy="352" opacity="0.55"></circle><circle r="3" cx="651" cy="513" opacity="0.48"></circle><circle r="3" cx="544" cy="636" opacity="0.78"></circle><circle r="3" cx="386" cy="676" opacity="0.10"></circle><circle r="3.5" cx="232" cy="620" opacity="0.65"></circle><circle r="3.5" cx="136" cy="487" opacity="0.41"></circle><circle r="3.5" cx="132" cy="323" opacity="0.75"></circle><circle r="3.5" cx="222" cy="185" opacity="0.94"></circle><circle r="3.5" cx="375" cy="121" opacity="0.82"></circle><circle r="3.5" cx="537" cy="155" opacity="0.26"></circle><circle r="3.5" cx="652" cy="275" opacity="0.11"></circle><circle r="3.5" cx="679" cy="439" opacity="0.64"></circle><circle r="3.5" cx="608" cy="590" opacity="0.75"></circle><circle r="3.5" cx="465" cy="675" opacity="0.89"></circle><circle r="3.5" cx="298" cy="664" opacity="0.77"></circle><circle r="3.5" cx="166" cy="561" opacity="0.99"></circle><circle r="3.5" cx="115" cy="400" opacity="0.12"></circle><circle r="3.5" cx="164" cy="239" opacity="0.41"></circle><circle r="3.5" cx="296" cy="134" opacity="0.70"></circle><circle r="3.5" cx="465" cy="121" opacity="0.21"></circle><circle r="3.5" cx="611" cy="206" opacity="0.85"></circle><circle r="3.5" cx="685" cy="359" opacity="0.99"></circle><circle r="3.5" cx="659" cy="527" opacity="0.43"></circle><circle r="3.5" cx="542" cy="651" opacity="0.55"></circle><circle r="3.5" cx="375" cy="688" opacity="0.57"></circle><circle r="3.5" cx="216" cy="624" opacity="0.28"></circle><circle r="3.5" cx="121" cy="482" opacity="0.39"></circle><circle r="3.5" cx="123" cy="310" opacity="0.75"></circle><circle r="3.5" cx="222" cy="169" opacity="0.25"></circle><circle r="3.5" cx="384" cy="108" opacity="0.12"></circle><circle r="3.5" cx="552" cy="149" opacity="0.30"></circle><circle r="3.5" cx="667" cy="279" opacity="0.27"></circle><circle r="3.5" cx="690" cy="451" opacity="0.23"></circle><circle r="3.5" cx="611" cy="606" opacity="0.32"></circle><circle r="3.5" cx="458" cy="690" opacity="0.57"></circle><circle r="3.5" cx="284" cy="672" opacity="0.59"></circle><circle r="3.5" cx="150" cy="560" opacity="0.85"></circle><circle r="3.5" cx="103" cy="391" opacity="0.52"></circle><circle r="3.5" cx="160" cy="224" opacity="0.98"></circle><circle r="3.5" cx="301" cy="119" opacity="0.22"></circle><circle r="3.5" cx="477" cy="111" opacity="0.60"></circle><circle r="3.5" cx="627" cy="205" opacity="0.67"></circle><circle r="3.5" cx="698" cy="367" opacity="0.66"></circle><circle r="3.5" cx="665" cy="542" opacity="0.30"></circle><circle r="3.5" cx="539" cy="667" opacity="0.55"></circle><circle r="3.5" cx="364" cy="700" opacity="0.57"></circle><circle r="3.5" cx="201" cy="628" opacity="0.85"></circle><circle r="3.5" cx="106" cy="475" opacity="0.95"></circle><circle r="3.5" cx="114" cy="296" opacity="0.21"></circle><circle r="3.5" cx="223" cy="153" opacity="0.27"></circle><circle r="3.5" cx="393" cy="95" opacity="0.51"></circle><circle r="3.5" cx="567" cy="144" opacity="0.33"></circle><circle r="3.5" cx="683" cy="283" opacity="0.93"></circle><circle r="3.5" cx="700" cy="463" opacity="0.73"></circle><circle r="3.5" cx="613" cy="622" opacity="0.75"></circle><circle r="3.5" cx="450" cy="704" opacity="0.79"></circle><circle r="3.5" cx="270" cy="680" opacity="0.26"></circle><circle r="3.5" cx="134" cy="558" opacity="0.67"></circle><circle r="3.5" cx="91" cy="380" opacity="0.93"></circle><circle r="3.5" cx="156" cy="208" opacity="0.88"></circle><circle r="3.5" cx="307" cy="103" opacity="0.79"></circle><circle r="3.5" cx="491" cy="102" opacity="1.00"></circle><circle r="3.5" cx="644" cy="205" opacity="0.31"></circle><circle r="3.5" cx="712" cy="376" opacity="0.51"></circle><circle r="3.5" cx="671" cy="557" opacity="0.94"></circle><circle r="3.5" cx="536" cy="683" opacity="0.64"></circle><circle r="3.5" cx="352" cy="711" opacity="0.97"></circle><circle r="3.5" cx="184" cy="630" opacity="0.54"></circle><circle r="3.5" cx="92" cy="468" opacity="0.27"></circle><circle r="3.5" cx="106" cy="282" opacity="0.54"></circle><circle r="3.5" cx="224" cy="136" opacity="0.99"></circle><circle r="3.5" cx="404" cy="82" opacity="0.76"></circle><circle r="3.5" cx="583" cy="139" opacity="0.99"></circle><circle r="3.5" cx="698" cy="288" opacity="0.95"></circle><circle r="3.5" cx="710" cy="476" opacity="0.65"></circle><circle r="3.5" cx="613" cy="638" opacity="0.36"></circle><circle r="3.5" cx="442" cy="718" opacity="0.77"></circle><circle r="3.5" cx="255" cy="686" opacity="0.27"></circle><circle r="3.5" cx="118" cy="555" opacity="0.92"></circle><circle r="3.5" cx="79" cy="368" opacity="0.69"></circle><circle r="3.5" cx="153" cy="192" opacity="0.76"></circle><circle r="3.5" cx="313" cy="88" opacity="0.90"></circle><circle r="3.5" cx="505" cy="93" opacity="0.43"></circle><circle r="3.5" cx="660" cy="205" opacity="0.41"></circle><circle r="3.5" cx="725" cy="386" opacity="0.39"></circle><circle r="3.5" cx="677" cy="572" opacity="0.42"></circle><circle r="3.5" cx="531" cy="699" opacity="0.16"></circle><circle r="3.5" cx="339" cy="722" opacity="0.22"></circle><circle r="3.5" cx="168" cy="631" opacity="0.12"></circle><circle r="4" cx="77" cy="460" opacity="0.25"></circle><circle r="4" cx="99" cy="267" opacity="0.99"></circle><circle r="4" cx="226" cy="120" opacity="0.61"></circle><circle r="4" cx="415" cy="70" opacity="0.25"></circle><circle r="4" cx="599" cy="136" opacity="0.35"></circle><circle r="4" cx="714" cy="294" opacity="0.41"></circle><circle r="4" cx="720" cy="490" opacity="0.70"></circle><circle r="4" cx="613" cy="655" opacity="0.54"></circle><circle r="4" cx="432" cy="732" opacity="0.50"></circle><circle r="4" cx="239" cy="692" opacity="0.73"></circle><circle r="4" cx="101" cy="551" opacity="0.87"></circle><circle r="4" cx="68" cy="356" opacity="0.77"></circle><circle r="4" cx="151" cy="176" opacity="0.87"></circle><circle r="4" cx="321" cy="73" opacity="0.24"></circle><circle r="4" cx="519" cy="85" opacity="0.20"></circle><circle r="4" cx="677" cy="207" opacity="0.27"></circle><circle r="4" cx="738" cy="397" opacity="0.26"></circle><circle r="4" cx="681" cy="589" opacity="0.69"></circle><circle r="4" cx="526" cy="715" opacity="0.40"></circle><circle r="4" cx="326" cy="732" opacity="0.20"></circle><circle r="4" cx="151" cy="632" opacity="0.78"></circle><circle r="4" cx="63" cy="451" opacity="0.17"></circle><circle r="4" cx="92" cy="252" opacity="0.60"></circle><circle r="4" cx="230" cy="103" opacity="0.74"></circle><circle r="4" cx="427" cy="58" opacity="0.74"></circle><circle r="4" cx="616" cy="133" opacity="0.46"></circle><circle r="4" cx="729" cy="301" opacity="0.38"></circle><circle r="4" cx="728" cy="504" opacity="0.94"></circle><circle r="4" cx="612" cy="672" opacity="0.57"></circle><circle r="4" cx="422" cy="745" opacity="0.36"></circle><circle r="4" cx="223" cy="698" opacity="0.67"></circle><circle r="4" cx="85" cy="546" opacity="0.47"></circle><circle r="4" cx="57" cy="342" opacity="0.46"></circle><circle r="4" cx="149" cy="159" opacity="0.21"></circle><circle r="4" cx="329" cy="58" opacity="0.55"></circle><circle r="4" cx="535" cy="78" opacity="0.48"></circle><circle r="4" cx="694" cy="210" opacity="0.66"></circle><circle r="4" cx="750" cy="409" opacity="0.41"></circle><circle r="4" cx="685" cy="605" opacity="0.76"></circle><circle r="4" cx="519" cy="731" opacity="0.98"></circle><circle r="4" cx="311" cy="741" opacity="0.35"></circle><circle r="4" cx="134" cy="632" opacity="0.20"></circle><circle r="4" cx="49" cy="441" opacity="0.95"></circle><circle r="4" cx="86" cy="235" opacity="0.34"></circle><circle r="4" cx="234" cy="87" opacity="0.87"></circle><circle r="4" cx="440" cy="47" opacity="0.86"></circle><circle r="4" cx="633" cy="131" opacity="0.12"></circle><circle r="4" cx="745" cy="309" opacity="0.50"></circle><circle r="4" cx="737" cy="520" opacity="0.62"></circle><circle r="4" cx="611" cy="689" opacity="0.50"></circle><circle r="4" cx="410" cy="758" opacity="0.57"></circle><circle r="4" cx="206" cy="702" opacity="0.31"></circle><circle r="4" cx="69" cy="540" opacity="0.90"></circle><circle r="4" cx="47" cy="328" opacity="0.97"></circle><circle r="4" cx="149" cy="141" opacity="0.58"></circle><circle r="4" cx="339" cy="44" opacity="0.13"></circle><circle r="4" cx="551" cy="71" opacity="0.12"></circle><circle r="4" cx="711" cy="213" opacity="0.76"></circle><circle r="4" cx="763" cy="421" opacity="0.28"></circle><circle r="4" cx="688" cy="623" opacity="0.17"></circle><circle r="4" cx="512" cy="747" opacity="0.44"></circle><circle r="4" cx="296" cy="750" opacity="0.86"></circle><circle r="4" cx="116" cy="631" opacity="0.66"></circle><circle r="4" cx="35" cy="430" opacity="0.83"></circle><circle r="4" cx="81" cy="219" opacity="0.66"></circle><circle r="4" cx="239" cy="70" opacity="0.15"></circle><circle r="4" cx="454" cy="36" opacity="0.55"></circle><circle r="4" cx="650" cy="129" opacity="0.14"></circle><circle r="4" cx="760" cy="318" opacity="0.17"></circle><circle r="4" cx="744" cy="536" opacity="0.24"></circle><circle r="4" cx="608" cy="707" opacity="0.18"></circle><circle r="4" cx="398" cy="771" opacity="0.18"></circle><circle r="4" cx="189" cy="706" opacity="0.99"></circle><circle r="4" cx="52" cy="533" opacity="0.85"></circle><circle r="4" cx="37" cy="314" opacity="0.11"></circle><circle r="4" cx="149" cy="124" opacity="0.70"></circle><circle r="4" cx="349" cy="30" opacity="0.71"></circle><circle r="4" cx="567" cy="65" opacity="0.30"></circle><circle r="4" cx="728" cy="218" opacity="0.86"></circle><circle r="4" cx="774" cy="435" opacity="0.19"></circle><circle r="4" cx="690" cy="640" opacity="0.72"></circle><circle r="4" cx="504" cy="762" opacity="0.61"></circle><circle r="4" cx="281" cy="758" opacity="0.40"></circle><circle r="4" cx="99" cy="629" opacity="0.37"></circle><circle r="4" cx="22" cy="419" opacity="0.45"></circle><circle r="4" cx="77" cy="202" opacity="0.98"></circle><circle r="4.5" cx="245" cy="53" opacity="0.47"></circle><circle r="4.5" cx="468" cy="26" opacity="0.13"></circle><circle r="4.5" cx="668" cy="129" opacity="0.53"></circle><circle r="4.5" cx="775" cy="327" opacity="0.88"></circle><circle r="4.5" cx="751" cy="552" opacity="0.51"></circle><circle r="4.5" cx="604" cy="724" opacity="0.23"></circle><circle r="4.5" cx="385" cy="783" opacity="0.44"></circle><circle r="4.5" cx="171" cy="709" opacity="0.68"></circle><circle r="4.5" cx="36" cy="526" opacity="0.75"></circle><circle r="4.5" cx="28" cy="298" opacity="0.98"></circle><circle r="4.5" cx="150" cy="106" opacity="0.30"></circle><circle r="4.5" cx="360" cy="15" opacity="0.30"></circle><circle r="4.5" cx="584" cy="60" opacity="0.85"></circle><circle r="4.5" cx="745" cy="223" opacity="0.24"></circle><circle r="4.5" cx="785" cy="449" opacity="0.35"></circle><circle r="4.5" cx="691" cy="658" opacity="0.73"></circle><circle r="4.5" cx="495" cy="778" opacity="0.40"></circle><circle r="4.5" cx="264" cy="766" opacity="0.32"></circle><circle r="4.5" cx="81" cy="626" opacity="0.33"></circle><circle r="4.5" cx="9" cy="406" opacity="0.67"></circle><circle r="4.5" cx="73" cy="184" opacity="0.93"></circle><circle r="4.5" cx="252" cy="36" opacity="0.36"></circle><circle r="4.5" cx="483" cy="16" opacity="0.50"></circle><circle r="4.5" cx="686" cy="129" opacity="0.93"></circle><circle r="4.5" cx="790" cy="338" opacity="0.49"></circle><circle r="4.5" cx="757" cy="569" opacity="0.16"></circle><circle r="4.5" cx="599" cy="742" opacity="0.48"></circle><circle r="4.5" cx="372" cy="795" opacity="0.83"></circle><circle r="4.5" cx="153" cy="711" opacity="0.59"></circle><circle r="4.5" cx="20" cy="517" opacity="0.48"></circle><circle r="4.5" cx="20" cy="282" opacity="0.63"></circle><circle r="4.5" cx="153" cy="88" opacity="0.23"></circle><circle r="4.5" cx="372" cy="2" opacity="0.21"></circle><circle r="4.5" cx="602" cy="55" opacity="0.90"></circle><circle r="4.5" cx="762" cy="229" opacity="0.39"></circle><circle r="4.5" cx="796" cy="464" opacity="0.68"></circle><circle r="4.5" cx="691" cy="676" opacity="0.16"></circle><circle r="4.5" cx="484" cy="793" opacity="0.26"></circle><circle r="4.5" cx="247" cy="773" opacity="0.92"></circle><circle r="4.5" cx="63" cy="622" opacity="0.25"></circle><circle r="4.5" cx="-4" cy="393" opacity="0.79"></circle><circle r="4.5" cx="70" cy="166" opacity="0.74"></circle><circle r="4.5" cx="260" cy="20" opacity="0.56"></circle><circle r="4.5" cx="499" cy="7" opacity="0.76"></circle><circle r="4.5" cx="704" cy="131" opacity="0.53"></circle><circle r="4.5" cx="804" cy="350" opacity="0.23"></circle><circle r="4.5" cx="762" cy="587" opacity="0.29"></circle><circle r="4.5" cx="594" cy="759" opacity="0.72"></circle><circle r="4.5" cx="357" cy="807" opacity="0.99"></circle><circle r="4.5" cx="135" cy="712" opacity="0.79"></circle><circle r="4.5" cx="4" cy="508" opacity="0.38"></circle><circle r="4.5" cx="12" cy="265" opacity="0.20"></circle><circle r="4.5" cx="156" cy="69" opacity="0.52"></circle><circle r="4.5" cx="385" cy="-12" opacity="0.37"></circle><circle r="4.5" cx="620" cy="51" opacity="0.88"></circle><circle r="4.5" cx="779" cy="236" opacity="0.41"></circle><circle r="4.5" cx="806" cy="479" opacity="0.19"></circle><circle r="4.5" cx="691" cy="695" opacity="0.86"></circle><circle r="4.5" cx="473" cy="808" opacity="0.67"></circle><circle r="4.5" cx="230" cy="779" opacity="0.93"></circle><circle r="4.5" cx="45" cy="617" opacity="0.24"></circle><circle r="4.5" cx="-16" cy="379" opacity="0.65"></circle><circle r="4.5" cx="68" cy="147" opacity="0.59"></circle><circle r="4.5" cx="269" cy="3" opacity="0.27"></circle><circle r="4.5" cx="516" cy="-2" opacity="0.50"></circle><circle r="4.5" cx="723" cy="133" opacity="0.93"></circle><circle r="4.5" cx="818" cy="362" opacity="0.16"></circle><circle r="4.5" cx="767" cy="605" opacity="0.16"></circle><circle r="4.5" cx="587" cy="777" opacity="0.22"></circle><circle r="4.5" cx="342" cy="817" opacity="0.79"></circle><circle r="4.5" cx="116" cy="712" opacity="0.17"></circle><circle r="4.5" cx="-11" cy="497" opacity="0.42"></circle><circle r="4.5" cx="5" cy="248" opacity="0.87"></circle><circle r="4.5" cx="160" cy="51" opacity="0.83"></circle><circle r="4.5" cx="399" cy="-24" opacity="0.88"></circle><circle r="4.5" cx="639" cy="49" opacity="0.47"></circle><circle r="4.5" cx="796" cy="245" opacity="0.53"></circle><circle r="4.5" cx="815" cy="496" opacity="0.78"></circle><circle r="4.5" cx="689" cy="714" opacity="0.25"></circle><circle r="4.5" cx="461" cy="823" opacity="0.16"></circle><circle r="4.5" cx="212" cy="784" opacity="0.77"></circle><circle r="4.5" cx="27" cy="611" opacity="0.99"></circle><circle r="4.5" cx="-28" cy="364" opacity="0.79"></circle><circle r="4.5" cx="67" cy="128" opacity="0.41"></circle><circle r="4.5" cx="279" cy="-13" opacity="0.80"></circle><circle r="5" cx="533" cy="-10" opacity="0.15"></circle><circle r="5" cx="742" cy="137" opacity="0.57"></circle><circle r="5" cx="832" cy="376" opacity="0.48"></circle><circle r="5" cx="770" cy="624" opacity="0.93"></circle><circle r="5" cx="580" cy="794" opacity="0.48"></circle><circle r="5" cx="325" cy="828" opacity="0.83"></circle><circle r="5" cx="97" cy="711" opacity="0.20"></circle><circle r="5" cx="-27" cy="486" opacity="0.83"></circle><circle r="5" cx="-1" cy="230" opacity="0.20"></circle><circle r="5" cx="165" cy="32" opacity="0.76"></circle><circle r="5" cx="414" cy="-37" opacity="0.61"></circle><circle r="5" cx="658" cy="47" opacity="0.95"></circle><circle r="5" cx="813" cy="254" opacity="0.75"></circle><circle r="5" cx="824" cy="513" opacity="0.82"></circle><circle r="5" cx="687" cy="733" opacity="0.27"></circle><circle r="5" cx="449" cy="837" opacity="0.62"></circle><circle r="5" cx="193" cy="789" opacity="0.66"></circle><circle r="5" cx="9" cy="604" opacity="0.87"></circle><circle r="5" cx="-39" cy="348" opacity="0.48"></circle><circle r="5" cx="67" cy="109" opacity="0.43"></circle><circle r="5" cx="289" cy="-29" opacity="0.97"></circle><circle r="5" cx="551" cy="-17" opacity="0.54"></circle><circle r="5" cx="761" cy="141" opacity="0.53"></circle><circle r="5" cx="845" cy="390" opacity="0.19"></circle><circle r="5" cx="773" cy="643" opacity="0.45"></circle><circle r="5" cx="571" cy="812" opacity="0.13"></circle><circle r="5" cx="309" cy="837" opacity="0.39"></circle><circle r="5" cx="77" cy="710" opacity="0.39"></circle><circle r="5" cx="-42" cy="473" opacity="0.44"></circle><circle r="5" cx="-7" cy="211" opacity="0.53"></circle><circle r="5" cx="171" cy="14" opacity="0.39"></circle><circle r="5" cx="429" cy="-49" opacity="0.19"></circle><circle r="5" cx="678" cy="46" opacity="0.77"></circle><circle r="5" cx="830" cy="264" opacity="0.81"></circle><circle r="5" cx="832" cy="531" opacity="0.16"></circle><circle r="5" cx="683" cy="752" opacity="0.83"></circle><circle r="5" cx="435" cy="851" opacity="0.70"></circle><circle r="5" cx="174" cy="793" opacity="0.13"></circle><circle r="5" cx="-9" cy="596" opacity="1.00"></circle><circle r="5" cx="-49" cy="331" opacity="0.87"></circle><circle r="5" cx="68" cy="89" opacity="0.59"></circle><circle r="5" cx="301" cy="-45" opacity="0.80"></circle><circle r="5" cx="570" cy="-23" opacity="0.57"></circle></g></svg>